<?xml version="1.0" encoding="UTF-8" standalone="no"?>
<!-- Created with Inkscape (http://www.inkscape.org/) -->

<svg
   width="127.99999"
   height="127.99999"
   viewBox="0 0 33.866664 33.866664"
   version="1.1"
   id="svg1"
   xmlns="http://www.w3.org/2000/svg"
   xmlns:svg="http://www.w3.org/2000/svg">
  <defs
     id="defs1" />
  <g
     id="layer1">
    <path
       style="fill:none;fill-rule:evenodd;stroke:#000000;stroke-width:0.688688;stroke-dasharray:none"
       id="path1"
       d="m 4.8763938,26.314125 c 0.9687523,-0.04152 0.5339143,1.285375 0.069006,1.61013 -1.2598715,0.880066 -2.8387131,-0.241644 -3.2892664,-1.472117 -0.8059341,-2.201027 0.904795,-4.425678 3.0132407,-4.968403 3.0942289,-0.796471 6.0405235,1.57002 6.6475395,4.554364 0.809056,3.977662 -2.2350747,7.6661 -6.095488,8.326676 C 0.36348977,35.196043 -4.0755667,31.464949 -4.7843861,26.728164 -5.6428613,20.991282 -1.2200234,15.797242 4.3933487,15.043215 11.008514,14.15462 16.960098,19.271973 17.757434,25.762074 18.677989,33.255151 12.864374,39.965918 5.4974517,40.805295 -2.8733135,41.759048 -10.344376,35.247997 -11.224906,27.004189 -12.212728,17.755883 -5.0034158,9.5237319 4.117323,8.6026953 14.243072,7.58017 23.236896,15.488346 24.197954,25.486048"
       transform="matrix(0.90081158,0,0,0.89965151,11.131814,-5.2933819)" />
  </g>
</svg>
